<svg width="22" height="20" viewBox="0 0 22 20" fill="none" xmlns="http://www.w3.org/2000/svg">
<path d="M21.2173 18.0099C21.1363 17.4554 19.0928 4.69134 18.8722 3.11533C18.762 2.32086 18.0572 1.71316 17.2146 1.71316H15.2019V0.78475C15.2019 0.35205 14.8383 0 14.3914 0H14.2251C13.7782 0 13.4146 0.35205 13.4146 0.78475V1.71312H10.0477V0.78475C10.0477 0.35205 9.68411 0 9.23719 0H9.07093C8.62397 0 8.2604 0.35205 8.2604 0.78475V1.71312H4.89352V0.78475C4.89352 0.35205 4.5299 0 4.08299 0H3.91672C3.46977 0 3.10619 0.35205 3.10619 0.78475V1.71312H1.67311C0.750557 1.71312 0 2.4398 0 3.33297C0 3.79291 0 18.1519 0 18.3801C0 19.2733 0.750557 20 1.67311 20C1.94994 20 19.2747 20 19.5993 20C20.2965 20 20.9273 19.5747 21.1681 18.9438C21.2009 18.8599 21.3012 18.5448 21.2173 18.0099ZM14.0381 0.78475C14.0381 0.684893 14.122 0.603641 14.2252 0.603641H14.3914C14.4946 0.603641 14.5785 0.684893 14.5785 0.78475V3.4677C14.5785 3.56756 14.4946 3.64881 14.3914 3.64881H14.2252C14.122 3.64881 14.0381 3.56756 14.0381 3.4677V0.78475ZM13.6025 3.96956C13.6169 3.98623 13.6321 4.00211 13.6478 4.01754C13.6504 4.02007 13.6529 4.02264 13.6555 4.02513C13.6715 4.04048 13.6882 4.05507 13.7055 4.06905C13.7086 4.07162 13.7118 4.07412 13.715 4.07665C13.7325 4.09047 13.7505 4.10361 13.7693 4.11595C13.7721 4.11784 13.7751 4.11964 13.778 4.12149C13.7976 4.13407 13.8176 4.14612 13.8384 4.15705C13.8395 4.15762 13.8406 4.1581 13.8417 4.1587C13.8623 4.16947 13.8836 4.17936 13.9053 4.1884C13.9076 4.18936 13.9098 4.19041 13.9122 4.19137C13.9336 4.20009 13.9557 4.20781 13.978 4.21476C13.9818 4.21592 13.9854 4.21713 13.9892 4.21821C14.0113 4.22472 14.0337 4.23027 14.0565 4.23501C14.0605 4.23585 14.0646 4.23662 14.0686 4.23738C14.0918 4.2418 14.1153 4.24538 14.1392 4.24783C14.1423 4.24815 14.1455 4.24831 14.1486 4.24863C14.1739 4.25092 14.1993 4.25237 14.2251 4.25237H14.3914C14.4172 4.25237 14.4427 4.25092 14.4679 4.24863C14.471 4.24835 14.4742 4.24819 14.4774 4.24783C14.5012 4.24538 14.5247 4.2418 14.5479 4.23738C14.552 4.23662 14.556 4.23585 14.56 4.23501C14.5829 4.23031 14.6053 4.22476 14.6273 4.21821C14.631 4.21709 14.6348 4.21588 14.6385 4.21476C14.6609 4.20781 14.6829 4.20009 14.7044 4.19137C14.7067 4.19041 14.7089 4.18936 14.7113 4.1884C14.733 4.17936 14.7542 4.16947 14.7749 4.1587C14.7759 4.15814 14.7771 4.15766 14.7781 4.15705C14.7989 4.14612 14.8189 4.13407 14.8386 4.12149C14.8415 4.11964 14.8444 4.11784 14.8473 4.11595C14.866 4.10361 14.884 4.09043 14.9016 4.07665C14.9048 4.07412 14.9079 4.07162 14.9111 4.06905C14.9283 4.05503 14.945 4.04048 14.961 4.02513C14.9636 4.02264 14.9661 4.02007 14.9687 4.01754C14.9843 4.00211 14.9996 3.98623 15.0139 3.96956C15.0145 3.98045 15.0147 3.99134 15.0147 4.00227C15.0147 4.37951 14.6978 4.6864 14.3081 4.6864C13.9185 4.6864 13.6015 4.37951 13.6015 4.00227C13.6017 3.99134 13.602 3.98045 13.6025 3.96956ZM8.88395 0.78475C8.88395 0.684893 8.96783 0.603641 9.07101 0.603641H9.23728C9.34041 0.603641 9.42433 0.684893 9.42433 0.78475V3.4677C9.42433 3.56756 9.34041 3.64881 9.23728 3.64881H9.07101C8.96783 3.64881 8.88395 3.56756 8.88395 3.4677V0.78475ZM8.44829 3.96956C8.46265 3.98623 8.47788 4.00211 8.49357 4.01754C8.49614 4.02007 8.49867 4.02264 8.50129 4.02513C8.51727 4.04048 8.53395 4.05507 8.55122 4.06905C8.55437 4.07162 8.55752 4.07412 8.56072 4.07665C8.57823 4.09047 8.59629 4.10361 8.61501 4.11595C8.61787 4.11784 8.62082 4.11964 8.62372 4.12149C8.64335 4.13407 8.6634 4.14612 8.68415 4.15705C8.68523 4.15762 8.68635 4.1581 8.68743 4.1587C8.7081 4.16947 8.72935 4.17936 8.75102 4.1884C8.75334 4.18936 8.75558 4.19041 8.75791 4.19137C8.7794 4.20009 8.80144 4.20781 8.82377 4.21476C8.82751 4.21592 8.8312 4.21713 8.83498 4.21821C8.85702 4.22472 8.87947 4.23027 8.90226 4.23501C8.90628 4.23585 8.91031 4.23662 8.91438 4.23738C8.93758 4.2418 8.96107 4.24538 8.98493 4.24783C8.98809 4.24815 8.99124 4.24831 8.99444 4.24863C9.01963 4.25092 9.04511 4.25237 9.07093 4.25237H9.23719C9.26301 4.25237 9.28845 4.25092 9.31368 4.24863C9.31684 4.24835 9.32003 4.24819 9.32319 4.24783C9.34705 4.24538 9.37054 4.2418 9.39375 4.23738C9.39781 4.23662 9.40184 4.23585 9.40586 4.23501C9.42869 4.23031 9.45115 4.22476 9.47314 4.21821C9.47688 4.21709 9.48061 4.21588 9.48435 4.21476C9.50672 4.20781 9.52876 4.20009 9.55021 4.19137C9.55254 4.19041 9.55478 4.18936 9.55711 4.1884C9.57881 4.17936 9.60006 4.16947 9.62069 4.1587C9.62177 4.15814 9.62289 4.15766 9.62397 4.15705C9.64472 4.14612 9.66477 4.13407 9.6844 4.12149C9.6873 4.11964 9.69025 4.11784 9.69311 4.11595C9.71183 4.10361 9.72984 4.09043 9.7474 4.07665C9.7506 4.07412 9.75375 4.07162 9.7569 4.06905C9.77417 4.05503 9.79081 4.04048 9.80683 4.02513C9.80945 4.02264 9.81198 4.02007 9.81455 4.01754C9.83012 4.00211 9.84535 3.98623 9.85971 3.96956C9.86025 3.98045 9.86054 3.99134 9.86054 4.00227C9.86054 4.37951 9.54357 4.6864 9.15389 4.6864C8.76421 4.6864 8.44725 4.37951 8.44725 4.00227C8.4475 3.99134 8.44775 3.98045 8.44829 3.96956ZM3.72971 0.78475C3.72971 0.684893 3.81363 0.603641 3.91677 0.603641H4.08303C4.18617 0.603641 4.27009 0.684893 4.27009 0.78475C4.27009 1.28906 4.27009 2.95046 4.27009 3.4677C4.27009 3.56756 4.18617 3.64881 4.08303 3.64881H3.91672C3.81359 3.64881 3.72967 3.56756 3.72967 3.4677C3.72971 3.22511 3.72971 1.04337 3.72971 0.78475ZM3.52995 4.15714C3.53103 4.1577 3.53215 4.15818 3.53323 4.15878C3.5539 4.16955 3.57515 4.17944 3.59681 4.18848C3.59914 4.18944 3.60138 4.19049 3.6037 4.19145C3.6252 4.20017 3.64724 4.20789 3.66957 4.21484C3.6733 4.216 3.677 4.21721 3.68073 4.21829C3.70277 4.2248 3.72522 4.23035 3.74801 4.23509C3.75204 4.23594 3.75606 4.2367 3.76013 4.23746C3.78333 4.24188 3.80682 4.24546 3.83069 4.24791C3.83384 4.24823 3.83699 4.24839 3.84019 4.24871C3.86538 4.251 3.89087 4.25245 3.91668 4.25245H4.08295C4.10876 4.25245 4.1342 4.251 4.15944 4.24871C4.16259 4.24843 4.16579 4.24827 4.16894 4.24791C4.19281 4.24546 4.2163 4.24188 4.2395 4.23746C4.24357 4.2367 4.24759 4.23594 4.25162 4.23509C4.27445 4.23039 4.2969 4.22484 4.3189 4.21829C4.32263 4.21717 4.32637 4.21596 4.3301 4.21484C4.35247 4.20789 4.37451 4.20017 4.39597 4.19145C4.39829 4.19049 4.40053 4.18944 4.40286 4.18848C4.42457 4.17944 4.44582 4.16955 4.46644 4.15878C4.46752 4.15822 4.46864 4.15774 4.46972 4.15714C4.49047 4.1462 4.51056 4.13415 4.53015 4.12157C4.53306 4.11972 4.536 4.11792 4.53887 4.11603C4.55759 4.10369 4.5756 4.09051 4.59315 4.07673C4.59635 4.0742 4.5995 4.0717 4.60266 4.06913C4.61992 4.05511 4.63657 4.04056 4.65259 4.02521C4.6552 4.02272 4.65773 4.02015 4.66031 4.01762C4.67591 4.00215 4.69114 3.98627 4.70551 3.9696C4.70605 3.98049 4.70634 3.99138 4.70634 4.00231C4.70634 4.37955 4.38937 4.68644 3.99969 4.68644C3.59602 4.68644 3.27428 4.35813 3.29392 3.96956C3.35762 4.04333 3.44026 4.10976 3.52995 4.15714ZM0.623513 3.33297C0.623513 2.77264 1.09438 2.31676 1.67315 2.31676H3.10628V3.04907C2.2088 3.83864 2.78769 5.29008 3.99994 5.29008C4.73335 5.29008 5.33006 4.71235 5.33006 4.00227C5.33006 3.63724 5.16935 3.29162 4.8936 3.04903V2.3168H8.26048V3.04911C7.98473 3.2917 7.82403 3.63728 7.82403 4.00231C7.82403 4.71243 8.42073 5.29012 9.15414 5.29012C9.88756 5.29012 10.4843 4.71239 10.4843 4.00231C10.4843 3.63728 10.3236 3.29166 10.0478 3.04907V2.3168H13.4147V3.04911C13.1389 3.2917 12.9782 3.63728 12.9782 4.00231C12.9782 4.71243 13.5749 5.29012 14.3083 5.29012C15.0418 5.29012 15.6385 4.71239 15.6385 4.00231C15.6385 3.63728 15.4778 3.29166 15.202 3.04907V2.3168H17.2147C17.7935 2.3168 18.2644 2.77268 18.2644 3.33301V6.41695H0.623513V3.33297ZM20.5841 18.7324C20.4325 19.1296 20.0367 19.3964 19.5992 19.3964H18.5162C18.7483 19.1183 18.8877 18.7648 18.8877 18.3802V14.3825C18.8877 14.2159 18.7481 14.0807 18.576 14.0807C18.4038 14.0807 18.2642 14.2159 18.2642 14.3825V18.3802C18.2642 18.9405 17.7933 19.3964 17.2146 19.3964H1.67311C1.09433 19.3964 0.623472 18.9405 0.623472 18.3802V8.14747H8.42878C8.60094 8.14747 8.74051 8.01233 8.74051 7.84565C8.74051 7.67896 8.60094 7.54383 8.42878 7.54383H0.623513V7.02063H18.2643V7.54383H9.87942C9.70727 7.54383 9.56769 7.67896 9.56769 7.84565C9.56769 8.01233 9.70727 8.14747 9.87942 8.14747H18.2643V12.974C18.2643 13.1407 18.4039 13.2758 18.5761 13.2758C18.7482 13.2758 18.8878 13.1407 18.8878 12.974C18.8878 12.7377 18.8878 7.52727 18.8878 7.29035L20.5996 18.0922C20.5998 18.0938 20.6001 18.0952 20.6003 18.0968C20.6662 18.513 20.5858 18.7282 20.5841 18.7324Z" fill="#5A5A5A"/>
</svg>
