<svg width="20" height="17" viewBox="0 0 20 17" fill="none" xmlns="http://www.w3.org/2000/svg">
<path d="M19.2063 0.826516C18.7321 0.302433 18.0333 0.0279122 17.1349 0.00295581C14.5893 -0.0719133 12.7925 1.27573 11.7942 4.02093C11.7443 4.17067 11.7693 4.32041 11.8691 4.44519C11.9689 4.54502 12.1187 4.59493 12.2684 4.56997C12.5679 4.4951 12.8424 4.44519 13.1169 4.44519C13.4913 4.44519 13.9654 4.52006 14.215 4.84449C14.4146 5.09406 14.4396 5.4684 14.2899 5.94257C14.1651 6.34187 13.5661 7.43995 12.8424 8.6129C11.944 10.0354 11.4448 10.6593 11.2951 10.6593C10.8209 10.6593 9.09894 3.07259 9.04902 2.92285C8.5499 1.17591 8.30033 0.302432 6.70313 0.302432C5.48026 0.302432 2.76002 2.52355 0.538902 4.47015C0.389163 4.59493 0.289338 4.69475 0.189512 4.76962C-0.0350949 4.94432 -0.0600513 5.26875 0.114643 5.49336L0.538902 6.01744C0.713596 6.24205 1.03803 6.29196 1.26264 6.11727L1.28759 6.09231C2.01133 5.56823 2.68515 5.09406 3.20923 5.0691C3.75827 5.04414 4.2574 5.91762 4.8314 7.98899C5.92948 12.0319 7.60155 16.8236 9.32354 16.8236C11.1204 16.8236 13.2667 15.3012 16.0368 11.7075C18.5324 8.43821 19.8801 5.8677 19.9799 3.99598C20.0797 2.52355 19.8052 1.50034 19.2063 0.826516Z" fill="#BA5CAB"/>
</svg>
