<svg width="20" height="12" viewBox="0 0 20 12" fill="none" xmlns="http://www.w3.org/2000/svg">
<path fill-rule="evenodd" clip-rule="evenodd" d="M9.7709 11.3259H10.9684C10.9684 11.3259 11.3176 11.276 11.5172 11.0765C11.6918 10.9018 11.6918 10.5526 11.6918 10.5526C11.6918 10.5526 11.6669 8.95596 12.4153 8.70649C13.1387 8.48197 14.0867 10.2532 15.0846 10.9268C15.833 11.4507 16.4068 11.3259 16.4068 11.3259L19.0761 11.301C19.0761 11.301 20.4731 11.2261 19.7996 10.1285C19.7497 10.0287 19.4254 9.30522 17.8288 7.83335C16.1573 6.28664 16.3818 6.53611 18.4025 3.84183C19.6249 2.22028 20.1239 1.2224 19.9742 0.773356C19.8245 0.374204 18.9264 0.473992 18.9264 0.473992L15.9328 0.498939C15.9328 0.498939 15.7083 0.473992 15.5336 0.57378C15.3341 0.698515 15.2343 0.923038 15.2343 0.923038C15.2343 0.923038 14.7603 2.19533 14.1366 3.26805C12.7895 5.53823 12.2656 5.66296 12.0411 5.51328C11.5421 5.18897 11.6669 4.19109 11.6669 3.49258C11.6669 1.29724 11.9912 0.374204 11.0182 0.149681C10.6939 0.0748405 10.4445 0.024947 9.62121 0C8.54849 0 7.6504 0 7.12652 0.24947C6.77726 0.424098 6.52779 0.798303 6.67747 0.798303C6.87705 0.82325 7.32609 0.923038 7.55062 1.24735C7.84998 1.67145 7.84998 2.59448 7.84998 2.59448C7.84998 2.59448 8.02461 5.18897 7.42588 5.51328C7.02673 5.7378 6.4779 5.28876 5.28044 3.21816C4.68172 2.17039 4.20772 0.997879 4.20772 0.997879C4.20772 0.997879 4.10793 0.773356 3.95825 0.673568C3.83352 0.57378 3.58405 0.498939 3.30963 0.498939L0.640306 0.523886C0.640306 0.523886 0.216207 0.523886 0.0665253 0.723462C-0.0831566 0.898091 0.0665253 1.2224 0.0665253 1.2224C0.0665253 1.2224 2.31175 6.43632 4.8314 9.05575C7.15146 11.5006 9.7709 11.3259 9.7709 11.3259Z" fill="#1A4B78"/>
</svg>
