<svg width="10" height="11" viewBox="0 0 10 11" fill="none" xmlns="http://www.w3.org/2000/svg">
<path d="M9.91789 4.55878C9.80788 3.85247 9.56536 3.23117 9.18783 2.69488C8.77405 2.08733 8.24901 1.64229 7.6102 1.36102C6.9739 1.0785 6.25759 0.937235 5.46003 0.938485C4.12117 0.938485 3.03358 1.35727 2.19226 2.18859C1.35344 3.0224 0.933411 4.22125 0.933411 5.78388C0.933411 7.45026 1.3972 8.65411 2.32977 9.39292C3.2586 10.133 4.33119 10.5018 5.54879 10.5018C7.02266 10.5018 8.169 10.063 8.98782 9.18791C9.51161 8.63536 9.80788 8.09157 9.87289 7.55777H7.43269C7.29143 7.82154 7.12766 8.02781 6.94015 8.17782C6.60012 8.45285 6.15759 8.59036 5.61504 8.59036C5.09875 8.59036 4.66121 8.4766 4.29618 8.25033C3.69363 7.8878 3.37861 7.25275 3.33861 6.34892H9.9979C10.0079 5.57011 9.9829 4.97131 9.91789 4.55878ZM3.39861 4.79255C3.48612 4.20625 3.69864 3.74121 4.03616 3.39743C4.37369 3.05491 4.85123 2.88239 5.46253 2.88114C6.02633 2.88114 6.49761 3.04241 6.88139 3.36618C7.26018 3.69246 7.47394 4.16625 7.5177 4.79255H3.39861Z" fill="#053EFF"/>
</svg>
