<svg width="233" height="144" viewBox="0 0 233 144" fill="none" xmlns="http://www.w3.org/2000/svg">
<path d="M212.288 45.3023L205.559 29.3779C203.278 23.9781 197.234 21.3563 191.762 23.1663L166.06 3.58398C163.68 1.77404 160.746 1.00156 157.798 1.41134C154.866 1.82064 152.266 3.35486 150.487 5.72434L112.261 56.6581L103.357 60.4201C97.6765 62.8201 95.0086 69.3912 97.4088 75.072L123.52 136.872C125.92 142.553 132.491 145.221 138.172 142.82L225.722 105.83C231.403 103.43 234.07 96.8589 231.67 91.1781L224.942 75.2537C227.482 72.9235 228.445 69.1798 227.029 65.8271L220.501 50.3771C219.084 47.0244 215.729 45.1052 212.288 45.3023ZM185.743 25.6116L163.299 35.0942L175.992 18.182L185.743 25.6116ZM171.545 14.7939L153.064 39.4188L142.897 43.7141L167.127 11.4282L171.545 14.7939ZM154.96 9.07983C155.836 7.90641 157.12 7.15061 158.567 6.94841C160.031 6.74471 161.487 7.13144 162.671 8.03292L162.68 8.04009L132.662 48.0384L122.497 52.3335L154.96 9.07983ZM226.52 93.3541C227.72 96.193 226.385 99.4804 223.546 100.68L135.996 137.67C133.157 138.87 129.869 137.535 128.67 134.696L102.559 72.896C101.36 70.0571 102.694 66.7697 105.533 65.5702L193.083 28.5798C195.922 27.3803 199.21 28.7149 200.409 31.5539L206.937 47.0039L191.487 53.5316C182.967 57.1313 178.965 66.9897 182.565 75.5094C186.164 84.0291 196.023 88.0314 204.542 84.4317L219.992 77.904L226.52 93.3541V93.3541ZM221.879 68.003C222.479 69.4237 221.813 71.0657 220.392 71.6661L202.366 79.2818C196.686 81.6819 190.115 79.0143 187.714 73.3335C185.314 67.653 187.982 61.0817 193.663 58.6816L211.688 51.0659C213.109 50.4656 214.751 51.132 215.351 52.553L221.879 68.003V68.003Z" fill="black" fill-opacity="0.03"/>
<rect width="133" height="133" rx="10" fill="#FFE3B6"/>
<path d="M100.325 20L113 56.0535L106.935 58.2216V48.8065C106.933 48.003 106.613 47.2331 106.045 46.665C105.477 46.0968 104.707 45.7766 103.903 45.7742H101.402L97.1261 33.6148C96.4006 33.8734 95.6311 33.9858 94.8619 33.9457C94.0927 33.9056 93.339 33.7137 92.6443 33.3812C91.9496 33.0486 91.3275 32.5819 90.8139 32.0079C90.3003 31.4339 89.9053 30.764 89.6516 30.0368L45.5019 45.7135V45.7742H32.6452C32.2693 45.7747 31.8941 45.7442 31.5232 45.6832L31.129 44.5916L82.7381 26.2465L100.325 20Z" fill="#36CE94"/>
<path d="M25.2161 39.6641C25.5175 41.1957 26.2855 42.5965 27.4148 43.6742C28.5441 44.7519 29.9792 45.4537 31.5232 45.6831C31.8941 45.7442 32.2693 45.7746 32.6452 45.7741H103.903C104.707 45.7765 105.477 46.0967 106.045 46.6649C106.613 47.233 106.933 48.0029 106.935 48.8064V68.516H88.7419C87.9385 68.5184 87.1686 68.8387 86.6005 69.4068C86.0323 69.975 85.7121 70.7448 85.7097 71.5483V80.6451C85.7121 81.4485 86.0323 82.2184 86.6005 82.7866C87.1686 83.3547 87.9385 83.6749 88.7419 83.6773H106.935V100.355C106.935 102.189 104.222 104.903 100.871 104.903H79.6452V80.6451C79.6428 79.8416 79.3225 79.0717 78.7544 78.5036C78.1862 77.9355 77.4164 77.6152 76.6129 77.6128H28.0968C27.2933 77.6152 26.5234 77.9355 25.9553 78.5036C25.3872 79.0717 25.0669 79.8416 25.0645 80.6451V104.903C23.4561 104.903 21.9136 104.264 20.7763 103.127C19.6389 101.99 19 100.447 19 98.8386V39.7096C19 37.297 19.9584 34.9832 21.6644 33.2772C23.3704 31.5712 25.6842 30.6128 28.0968 30.6128H32.9635C31.0397 30.582 29.1723 31.263 27.72 32.525C26.2676 33.7871 25.3327 35.5412 25.0948 37.4506C25.02 38.1902 25.0609 38.9371 25.2161 39.6641Z" fill="#FEBD55"/>
<path d="M97.1261 33.6147L101.402 45.774H45.5019V45.7134L89.6516 30.0366C89.9053 30.7639 90.3003 31.4338 90.8139 32.0078C91.3275 32.5817 91.9496 33.0484 92.6443 33.381C93.3391 33.7136 94.0927 33.9054 94.8619 33.9455C95.6311 33.9856 96.4006 33.8732 97.1261 33.6147Z" fill="#2FB380"/>
<path d="M50.2626 30.6129L79.6452 20L82.6774 26.0645L82.7381 26.2465L31.129 44.5916L31.5232 45.6832C29.9792 45.4537 28.5441 44.752 27.4148 43.6743C26.2855 42.5966 25.5175 41.1958 25.2161 39.6642L50.2626 30.6129Z" fill="#2FB380"/>
<path d="M50.2626 30.6128L25.2161 39.6641C25.0609 38.9371 25.02 38.1902 25.0948 37.4506C25.3327 35.5412 26.2676 33.7871 27.72 32.525C29.1723 31.263 31.0397 30.582 32.9636 30.6128H50.2626Z" fill="#BD6F08"/>
<path d="M82.6774 26.0642L81.4463 23.6021L35.4015 40.2294C34.662 40.4964 33.8476 40.4658 33.1303 40.1439C32.413 39.822 31.8487 39.234 31.5566 38.5041L31.1609 37.5156L25.2161 39.6639C25.5175 41.1955 26.2855 42.5963 27.4148 43.674C28.5441 44.7517 29.9792 45.4535 31.5232 45.683L31.129 44.5913L82.7381 26.2462L82.6774 26.0642Z" fill="#2AA173"/>
<path d="M58.1404 41.2256H40.5973L31.129 44.5914L31.5232 45.683C31.8941 45.744 32.2693 45.7744 32.6452 45.774H45.5019V45.7133L58.1404 41.2256Z" fill="#2FB380"/>
<path d="M113 56.0533L107.788 41.2256H99.8097L101.409 45.774H103.903C104.707 45.7764 105.477 46.0966 106.045 46.6648C106.613 47.2329 106.933 48.0028 106.935 48.8062V58.2214L113 56.0533Z" fill="#2FB380"/>
<path d="M58.1404 41.2256L45.5019 45.7133V45.774H101.402L99.8021 41.2256H58.1404Z" fill="#2AA173"/>
<path d="M25.0645 86.7096V80.6451C25.0669 79.8416 25.3872 79.0717 25.9553 78.5036C26.5234 77.9355 27.2933 77.6152 28.0968 77.6128H31.129V45.5922C29.6682 45.2984 28.327 44.5787 27.2747 43.5237C26.2224 42.4687 25.5061 41.1257 25.2161 39.6641C25.0609 38.9371 25.02 38.1902 25.0948 37.4506C25.3327 35.5412 26.2676 33.7871 27.72 32.525C29.1723 31.263 31.0397 30.582 32.9635 30.6128H28.0968C25.6842 30.6128 23.3704 31.5712 21.6644 33.2772C19.9584 34.9832 19 37.297 19 39.7096V98.8386C19 100.447 19.6389 101.99 20.7763 103.127C21.9136 104.264 23.4561 104.903 25.0645 104.903V86.7096Z" fill="#FC9E20"/>
</svg>
