<svg width="63" height="23" viewBox="0 0 63 23" fill="none" xmlns="http://www.w3.org/2000/svg">
<path d="M0.56 19.27C0.56 18.43 0.71 17.94 1.01 17.8C1.47 17.52 1.79 17.38 1.97 17.38C2.09 17.38 2.25 17.4 2.45 17.44C2.21 15.44 2.09 13.43 2.09 11.41C2.09 9.47 2.21 7.54 2.45 5.62C2.21 5.66 2.02 5.68 1.88 5.68C1.58 5.68 1.29 5.54 1.01 5.26C0.85 5.02 0.77 4.45 0.77 3.55C0.77 2.67 0.85 2.11 1.01 1.87C0.99 1.65 1.41 1.46 2.27 1.3C3.15 1.14 4.11 1.06 5.15 1.06C6.09 1.06 6.74 1.15 7.1 1.33C7.68 1.63 7.97 2.33 7.97 3.43C7.97 4.11 7.88 4.7 7.7 5.2C7.32 5.46 6.96 5.59 6.62 5.59C6.46 5.59 6.27 5.56 6.05 5.5C6.93 6.16 8.32 7.3 10.22 8.92C12.12 10.52 13.51 11.78 14.39 12.7C14.39 9.74 14.51 7.38 14.75 5.62C14.63 5.64 14.45 5.65 14.21 5.65C13.89 5.65 13.59 5.52 13.31 5.26C13.01 4.74 12.86 4.08 12.86 3.28C12.86 2.56 13.01 2.09 13.31 1.87C14.05 1.31 15.26 1.03 16.94 1.03C18.14 1.03 18.96 1.13 19.4 1.33C20.06 1.71 20.39 2.5 20.39 3.7C20.39 4.36 20.26 4.86 20 5.2C19.48 5.44 19.1 5.56 18.86 5.56C18.72 5.56 18.55 5.54 18.35 5.5C18.59 7.12 18.71 8.88 18.71 10.78C18.71 12.34 18.59 14.6 18.35 17.56C18.59 17.5 18.75 17.47 18.83 17.47C19.35 17.47 19.74 17.6 20 17.86C20.22 18.14 20.33 18.55 20.33 19.09C20.33 19.59 20.24 20.11 20.06 20.65C19.88 21.17 19.66 21.53 19.4 21.73C19 21.91 18.02 22 16.46 22C14.82 22 13.77 21.74 13.31 21.22C13.01 20.92 12.86 20.28 12.86 19.3C12.86 18.5 13.01 18 13.31 17.8C13.71 17.52 14 17.38 14.18 17.38C14.3 17.38 14.46 17.4 14.66 17.44C13.86 16.92 12.44 15.71 10.4 13.81C8.36 11.89 7.02 10.68 6.38 10.18C6.34 13.02 6.23 15.48 6.05 17.56C6.29 17.52 6.5 17.5 6.68 17.5C7.08 17.5 7.42 17.62 7.7 17.86C7.88 18.06 7.97 18.44 7.97 19C7.97 19.56 7.88 20.13 7.7 20.71C7.54 21.27 7.34 21.61 7.1 21.73C6.74 21.91 6.09 22 5.15 22C4.11 22 3.15 21.92 2.27 21.76C1.41 21.6 0.99 21.41 1.01 21.19C0.71 20.89 0.56 20.25 0.56 19.27ZM23.1723 18.73C23.1723 18.31 23.2123 18.06 23.2923 17.98C23.8523 17.9 24.3023 17.86 24.6423 17.86C24.7023 17.86 24.8023 17.87 24.9423 17.89C25.1023 17.89 25.2223 17.89 25.3023 17.89C25.1623 16.09 25.0923 14.52 25.0923 13.18C25.0923 11.38 25.2223 8.68 25.4823 5.08C24.8223 5.26 24.3723 5.35 24.1323 5.35C23.9523 5.35 23.8323 5.33 23.7723 5.29C23.4523 5.05 23.2923 4.49 23.2923 3.61C23.2923 2.67 23.4223 2 23.6823 1.6C24.9623 0.999999 27.1523 0.699999 30.2523 0.699999C32.1923 0.699999 34.2123 0.809999 36.3123 1.03C38.4123 1.25 39.8723 1.5 40.6923 1.78C40.8923 2.78 40.9923 3.55 40.9923 4.09C40.9923 5.03 40.7623 5.8 40.3023 6.4C39.9023 6.5 39.4823 6.55 39.0423 6.55C37.9023 6.55 37.1723 6.23 36.8523 5.59L36.9423 4.6C36.5423 4.34 35.5023 4.21 33.8223 4.21C33.2423 4.21 32.5223 4.24 31.6623 4.3C30.8223 4.36 30.3923 4.42 30.3723 4.48C30.0923 5.46 29.8323 6.99 29.5923 9.07C31.3123 9.07 32.1823 9.04 32.2023 8.98C32.2023 8.48 32.3023 8.13 32.5023 7.93C33.1423 7.79 33.5023 7.72 33.5823 7.72C34.1623 7.72 34.6923 7.82 35.1723 8.02C35.5323 8.44 35.7123 9.2 35.7123 10.3C35.7123 10.92 35.6523 11.52 35.5323 12.1C35.4323 12.66 35.3023 13.02 35.1423 13.18C34.9623 13.32 34.3923 13.39 33.4323 13.39C32.8923 13.39 32.5623 13.33 32.4423 13.21C32.4023 13.17 32.3523 13.12 32.2923 13.06C32.2523 12.98 32.2223 12.93 32.2023 12.91C32.1823 12.87 32.1623 12.83 32.1423 12.79C32.1223 12.73 32.1023 12.67 32.0823 12.61C32.0823 12.55 32.0823 12.47 32.0823 12.37H29.3823C29.3823 14.15 29.4323 16.04 29.5323 18.04C29.7123 17.98 30.0023 17.95 30.4023 17.95C30.9223 17.95 31.2123 17.99 31.2723 18.07C31.4723 18.33 31.5723 19.05 31.5723 20.23C31.5723 21.19 31.5523 21.67 31.5123 21.67C30.8723 22.17 29.6323 22.42 27.7923 22.42C25.7523 22.42 24.3423 22.22 23.5623 21.82C23.3023 21.48 23.1723 20.45 23.1723 18.73ZM41.4003 4.69C41.4003 3.31 41.5403 2.2 41.8203 1.36C42.2003 1.34 43.0103 1.3 44.2503 1.24C45.4903 1.16 46.7303 1.1 47.9703 1.06C49.2303 1.02 50.5103 0.999999 51.8103 0.999999C53.1103 0.999999 54.4003 1.02 55.6803 1.06C56.9603 1.1 58.2503 1.16 59.5503 1.24C60.8703 1.3 61.7103 1.34 62.0703 1.36C62.3503 2.2 62.4903 3.31 62.4903 4.69C62.4903 5.41 62.4203 6.04 62.2803 6.58C61.2803 6.78 60.5703 6.88 60.1503 6.88C59.2703 6.88 58.5303 6.71 57.9303 6.37L57.4203 4.81C57.1603 4.65 56.0303 4.54 54.0303 4.48C54.1503 7.04 54.2103 9.7 54.2103 12.46C54.2103 14.62 54.1003 16.28 53.8803 17.44C53.9803 17.44 54.2103 17.47 54.5703 17.53C55.0903 17.61 55.4403 17.7 55.6203 17.8C55.7403 17.96 55.8003 18.57 55.8003 19.63C55.8003 20.41 55.7303 20.92 55.5903 21.16C55.2703 21.72 54.0603 22 51.9603 22C49.8403 22 48.6203 21.72 48.3003 21.16C48.1603 20.92 48.0903 20.4 48.0903 19.6C48.0903 18.56 48.1503 17.96 48.2703 17.8C48.4503 17.7 48.8003 17.61 49.3203 17.53C49.6803 17.47 49.9103 17.44 50.0103 17.44C49.7903 16.28 49.6803 14.62 49.6803 12.46C49.6803 9.7 49.7403 7.04 49.8603 4.48C47.8603 4.54 46.7303 4.65 46.4703 4.81L45.9603 6.37C45.3603 6.71 44.6203 6.88 43.7403 6.88C43.3203 6.88 42.6103 6.78 41.6103 6.58C41.4703 6.04 41.4003 5.41 41.4003 4.69Z" fill="#CC00FF"/>
</svg>
